<?xml version="1.0" encoding="UTF-8" standalone="no"?>
<!DOCTYPE svg PUBLIC "-//W3C//DTD SVG 1.1//EN" "http://www.w3.org/Graphics/SVG/1.1/DTD/svg11.dtd">
<svg width="100%" height="100%" viewBox="0 0 12 464" version="1.1" xmlns="http://www.w3.org/2000/svg" xmlns:xlink="http://www.w3.org/1999/xlink" xml:space="preserve" xmlns:serif="http://www.serif.com/" style="fill-rule:evenodd;clip-rule:evenodd;stroke-linecap:round;stroke-linejoin:round;stroke-miterlimit:1.5;">
    <g transform="matrix(1,0,0,1,-7.21185,-7.5)">
        <g>
            <g transform="matrix(1,0,0,1,3,0.211837)">
                <rect x="4.712" y="7.788" width="10.125" height="42.056" style="fill:white;stroke:black;stroke-width:1px;"/>
            </g>
            <g transform="matrix(1,0,0,1,3,60.2118)">
                <rect x="4.712" y="7.788" width="10.125" height="42.056" style="fill:white;stroke:black;stroke-width:1px;"/>
            </g>
            <g transform="matrix(1,0,0,1,3,120.212)">
                <rect x="4.712" y="7.788" width="10.125" height="42.056" style="fill:white;stroke:black;stroke-width:1px;"/>
            </g>
            <g transform="matrix(1,0,0,1,3,180.212)">
                <rect x="4.712" y="7.788" width="10.125" height="42.056" style="fill:white;stroke:black;stroke-width:1px;"/>
            </g>
            <g transform="matrix(1,0,0,1,3,240.212)">
                <rect x="4.712" y="7.788" width="10.125" height="42.056" style="fill:white;stroke:black;stroke-width:1px;"/>
            </g>
            <g transform="matrix(1,0,0,1,3,300.212)">
                <rect x="4.712" y="7.788" width="10.125" height="42.056" style="fill:white;stroke:black;stroke-width:1px;"/>
            </g>
            <g transform="matrix(1,0,0,1,3,360.212)">
                <rect x="4.712" y="7.788" width="10.125" height="42.056" style="fill:white;stroke:black;stroke-width:1px;"/>
            </g>
            <g transform="matrix(1,0,0,1,3,420.212)">
                <rect x="4.712" y="7.788" width="10.125" height="42.056" style="fill:white;stroke:black;stroke-width:1px;"/>
            </g>
        </g>
    </g>
</svg>
