<?xml version="1.0" encoding="UTF-8" standalone="no"?>
<!DOCTYPE svg PUBLIC "-//W3C//DTD SVG 1.1//EN" "http://www.w3.org/Graphics/SVG/1.1/DTD/svg11.dtd">
<svg width="100%" height="100%" viewBox="0 0 807 293" version="1.1" xmlns="http://www.w3.org/2000/svg" xmlns:xlink="http://www.w3.org/1999/xlink" xml:space="preserve" xmlns:serif="http://www.serif.com/" style="fill-rule:evenodd;clip-rule:evenodd;stroke-linejoin:round;stroke-miterlimit:1.41421;">
    <g transform="matrix(1,0,0,1,-67.8523,-8.16065)">
        <g>
            <g transform="matrix(0.415956,0,0,0.415956,34.0264,47.9054)">
                <g transform="matrix(1,0,0,1,482.866,-256.961)">
                    <g transform="matrix(1.31959,0,0,0.987179,-116.359,6.27723)">
                        <ellipse cx="336.124" cy="269.47" rx="37.773" ry="30.374" style="fill:rgb(191,191,191);"/>
                    </g>
                    <g transform="matrix(1.31959,0,0,0.987179,-142.839,-22.539)">
                        <ellipse cx="336.124" cy="269.47" rx="37.773" ry="30.374" style="fill:rgb(191,191,191);"/>
                    </g>
                    <g transform="matrix(0.958802,0,0,1,15.1764,-42.8349)">
                        <ellipse cx="236.047" cy="344.237" rx="207.944" ry="24.143" style="fill:rgb(191,191,191);"/>
                    </g>
                    <g transform="matrix(0.725821,-0.687884,0.687884,0.725821,-101.964,148.796)">
                        <ellipse cx="142.978" cy="266.355" rx="22.196" ry="35.826" style="fill:white;"/>
                    </g>
                    <ellipse cx="265.642" cy="227.414" rx="45.171" ry="56.854" style="fill:white;"/>
                    <g transform="matrix(0.990006,0.141027,-0.141027,0.990006,43.4366,-54.6009)">
                        <ellipse cx="211.514" cy="248.832" rx="19.86" ry="54.907" style="fill:white;"/>
                    </g>
                    <g transform="matrix(0.854199,-0.519947,0.519947,0.854199,-147.48,81.5918)">
                        <ellipse cx="127.012" cy="313.474" rx="16.355" ry="26.09" style="fill:white;"/>
                    </g>
                    <g transform="matrix(0.8898,-0.456352,0.456352,0.8898,-202.827,60.597)">
                        <ellipse cx="222.417" cy="349.688" rx="51.012" ry="14.019" style="fill:white;"/>
                    </g>
                    <ellipse cx="132.464" cy="295.561" rx="95.794" ry="12.85" style="fill:white;"/>
                    <g transform="matrix(1.14286,0,0,1,-71.9942,4.6729)">
                        <ellipse cx="225.922" cy="287.773" rx="32.71" ry="27.648" style="fill:white;"/>
                    </g>
                    <g transform="matrix(1.14286,0,0,1,-19.0347,-2.33645)">
                        <ellipse cx="225.922" cy="287.773" rx="32.71" ry="27.648" style="fill:white;"/>
                    </g>
                    <g transform="matrix(1.44048,0,0,1.4507,-29.8091,-152.286)">
                        <ellipse cx="225.922" cy="287.773" rx="32.71" ry="27.648" style="fill:white;"/>
                    </g>
                    <g transform="matrix(0.963711,0.266947,-0.266947,0.963711,21.921,-28.2699)">
                        <ellipse cx="339.629" cy="152.648" rx="32.71" ry="49.065" style="fill:white;"/>
                    </g>
                    <g transform="matrix(1,0,0,1,-744.548,196.213)">
                        <ellipse cx="525.54" cy="405.071" rx="137.072" ry="21.028" style="fill:rgb(191,191,191);"/>
                    </g>
                    <g transform="matrix(1,0,0,1,-548.508,207.453)">
                        <ellipse cx="451.163" cy="401.177" rx="60.358" ry="11.682" style="fill:rgb(191,191,191);"/>
                    </g>
                    <g transform="matrix(1,0,0,1,-866.044,249.173)">
                        <ellipse cx="555.525" cy="315.118" rx="51.791" ry="47.897" style="fill:rgb(191,191,191);"/>
                    </g>
                    <g transform="matrix(1,0,0,1,-518.692,193.098)">
                        <ellipse cx="181.009" cy="412.08" rx="63.863" ry="11.682" style="fill:rgb(191,191,191);"/>
                    </g>
                    <g transform="matrix(1,0,0,1,-437.695,162.724)">
                        <ellipse cx="87.551" cy="422.984" rx="29.595" ry="25.701" style="fill:rgb(191,191,191);"/>
                    </g>
                </g>
                <g>
                    <g transform="matrix(0.727273,0,0,0.656626,-166.215,180.321)">
                        <ellipse cx="587.067" cy="206.473" rx="59.969" ry="64.642" style="fill:white;"/>
                    </g>
                    <ellipse cx="214.489" cy="268.74" rx="42.445" ry="63.084" style="fill:white;"/>
                    <g transform="matrix(1,0,0,1,-43.6137,-36.6044)">
                        <ellipse cx="308.336" cy="310.018" rx="17.134" ry="49.065" style="fill:white;"/>
                    </g>
                    <g transform="matrix(0.986033,0.166551,-0.178289,1.05552,-176.883,-176.078)">
                        <ellipse cx="541.981" cy="337.665" rx="27.259" ry="57.243" style="fill:white;"/>
                    </g>
                    <g transform="matrix(0.927443,-0.373965,0.373965,0.927443,-307.826,217.406)">
                        <ellipse cx="541.895" cy="278.513" rx="59.969" ry="32.321" style="fill:white;"/>
                    </g>
                    <g transform="matrix(1,0,0,1,-111.707,-79.1028)">
                        <ellipse cx="444.543" cy="373.918" rx="43.614" ry="53.738" style="fill:white;"/>
                    </g>
                    <g transform="matrix(0.9694,-0.245486,0.245486,0.9694,-96.3277,33.0353)">
                        <ellipse cx="375.618" cy="392.999" rx="10.514" ry="26.869" style="fill:white;"/>
                    </g>
                    <g transform="matrix(1.19588,0,0,1.16418,61.7199,98.384)">
                        <ellipse cx="100.402" cy="185.834" rx="37.773" ry="26.09" style="fill:white;"/>
                    </g>
                </g>
            </g>
            <g transform="matrix(-0.415956,0,0,0.415956,863.047,148.59)">
                <g transform="matrix(1,0,0,1,482.866,-256.961)">
                    <g transform="matrix(1.31959,0,0,0.987179,-116.359,6.27723)">
                        <ellipse cx="336.124" cy="269.47" rx="37.773" ry="30.374" style="fill:rgb(191,191,191);"/>
                    </g>
                    <g transform="matrix(1.31959,0,0,0.987179,-142.839,-22.539)">
                        <ellipse cx="336.124" cy="269.47" rx="37.773" ry="30.374" style="fill:rgb(191,191,191);"/>
                    </g>
                    <g transform="matrix(0.958802,0,0,1,15.1764,-42.8349)">
                        <ellipse cx="236.047" cy="344.237" rx="207.944" ry="24.143" style="fill:rgb(191,191,191);"/>
                    </g>
                    <g transform="matrix(0.725821,-0.687884,0.687884,0.725821,-101.964,148.796)">
                        <ellipse cx="142.978" cy="266.355" rx="22.196" ry="35.826" style="fill:white;"/>
                    </g>
                    <ellipse cx="265.642" cy="227.414" rx="45.171" ry="56.854" style="fill:white;"/>
                    <g transform="matrix(0.990006,0.141027,-0.141027,0.990006,43.4366,-54.6009)">
                        <ellipse cx="211.514" cy="248.832" rx="19.86" ry="54.907" style="fill:white;"/>
                    </g>
                    <g transform="matrix(0.854199,-0.519947,0.519947,0.854199,-147.48,81.5918)">
                        <ellipse cx="127.012" cy="313.474" rx="16.355" ry="26.09" style="fill:white;"/>
                    </g>
                    <g transform="matrix(0.8898,-0.456352,0.456352,0.8898,-202.827,60.597)">
                        <ellipse cx="222.417" cy="349.688" rx="51.012" ry="14.019" style="fill:white;"/>
                    </g>
                    <ellipse cx="132.464" cy="295.561" rx="95.794" ry="12.85" style="fill:white;"/>
                    <g transform="matrix(1.14286,0,0,1,-71.9942,4.6729)">
                        <ellipse cx="225.922" cy="287.773" rx="32.71" ry="27.648" style="fill:white;"/>
                    </g>
                    <g transform="matrix(1.14286,0,0,1,-19.0347,-2.33645)">
                        <ellipse cx="225.922" cy="287.773" rx="32.71" ry="27.648" style="fill:white;"/>
                    </g>
                    <g transform="matrix(1.44048,0,0,1.4507,-29.8091,-152.286)">
                        <ellipse cx="225.922" cy="287.773" rx="32.71" ry="27.648" style="fill:white;"/>
                    </g>
                    <g transform="matrix(0.963711,0.266947,-0.266947,0.963711,21.921,-28.2699)">
                        <ellipse cx="339.629" cy="152.648" rx="32.71" ry="49.065" style="fill:white;"/>
                    </g>
                    <g transform="matrix(1,0,0,1,-744.548,196.213)">
                        <ellipse cx="525.54" cy="405.071" rx="137.072" ry="21.028" style="fill:rgb(191,191,191);"/>
                    </g>
                    <g transform="matrix(1,0,0,1,-548.508,207.453)">
                        <ellipse cx="451.163" cy="401.177" rx="60.358" ry="11.682" style="fill:rgb(191,191,191);"/>
                    </g>
                    <g transform="matrix(1,0,0,1,-866.044,249.173)">
                        <ellipse cx="555.525" cy="315.118" rx="51.791" ry="47.897" style="fill:rgb(191,191,191);"/>
                    </g>
                    <g transform="matrix(1,0,0,1,-518.692,193.098)">
                        <ellipse cx="181.009" cy="412.08" rx="63.863" ry="11.682" style="fill:rgb(191,191,191);"/>
                    </g>
                    <g transform="matrix(1,0,0,1,-437.695,162.724)">
                        <ellipse cx="87.551" cy="422.984" rx="29.595" ry="25.701" style="fill:rgb(191,191,191);"/>
                    </g>
                </g>
                <g>
                    <g transform="matrix(0.727273,0,0,0.656626,-166.215,180.321)">
                        <ellipse cx="587.067" cy="206.473" rx="59.969" ry="64.642" style="fill:white;"/>
                    </g>
                    <ellipse cx="214.489" cy="268.74" rx="42.445" ry="63.084" style="fill:white;"/>
                    <g transform="matrix(1,0,0,1,-43.6137,-36.6044)">
                        <ellipse cx="308.336" cy="310.018" rx="17.134" ry="49.065" style="fill:white;"/>
                    </g>
                    <g transform="matrix(0.986033,0.166551,-0.178289,1.05552,-176.883,-176.078)">
                        <ellipse cx="541.981" cy="337.665" rx="27.259" ry="57.243" style="fill:white;"/>
                    </g>
                    <g transform="matrix(0.927443,-0.373965,0.373965,0.927443,-307.826,217.406)">
                        <ellipse cx="541.895" cy="278.513" rx="59.969" ry="32.321" style="fill:white;"/>
                    </g>
                    <g transform="matrix(1,0,0,1,-111.707,-79.1028)">
                        <ellipse cx="444.543" cy="373.918" rx="43.614" ry="53.738" style="fill:white;"/>
                    </g>
                    <g transform="matrix(0.9694,-0.245486,0.245486,0.9694,-96.3277,33.0353)">
                        <ellipse cx="375.618" cy="392.999" rx="10.514" ry="26.869" style="fill:white;"/>
                    </g>
                    <g transform="matrix(1.19588,0,0,1.16418,61.7199,98.384)">
                        <ellipse cx="100.402" cy="185.834" rx="37.773" ry="26.09" style="fill:white;"/>
                    </g>
                </g>
            </g>
            <g transform="matrix(0.740398,0,0,0.740398,257.869,8.88898)">
                <g transform="matrix(1,0,0,1,136.301,37.6712)">
                    <ellipse cx="587.861" cy="10.894" rx="43.151" ry="40.753" style="fill:white;"/>
                </g>
                <g transform="matrix(1,0,0,1.5,295.89,-110.413)">
                    <ellipse cx="376.217" cy="133.154" rx="87.671" ry="15.068" style="fill:rgb(179,179,179);"/>
                </g>
                <g transform="matrix(1,0,0,1.5,368.493,-106.303)">
                    <ellipse cx="376.217" cy="133.154" rx="87.671" ry="15.068" style="fill:rgb(179,179,179);"/>
                </g>
                <g transform="matrix(0.910156,0,0,1.93182,395.787,-184.007)">
                    <ellipse cx="376.217" cy="133.154" rx="87.671" ry="15.068" style="fill:rgb(179,179,179);"/>
                </g>
                <g transform="matrix(1.65217,0,0,1.64286,-327.045,-69.8946)">
                    <ellipse cx="608.066" cy="73.565" rx="23.63" ry="19.178" style="fill:white;"/>
                </g>
                <g transform="matrix(1.65217,0,0,1.64286,-302.387,-51.4015)">
                    <ellipse cx="608.066" cy="73.565" rx="23.63" ry="19.178" style="fill:white;"/>
                </g>
                <g transform="matrix(2.04348,0,0,1.37037,-418.214,-7.53555)">
                    <ellipse cx="524.847" cy="59.182" rx="15.753" ry="18.493" style="fill:white;"/>
                </g>
                <g transform="matrix(1,0,0,2.89362,10.9589,-362.417)">
                    <ellipse cx="739.231" cy="149.25" rx="21.233" ry="16.096" style="fill:white;"/>
                </g>
                <g transform="matrix(0.315139,0.343157,-2.13125,1.95724,857.785,-481.263)">
                    <ellipse cx="739.231" cy="149.25" rx="21.233" ry="16.096" style="fill:white;"/>
                </g>
                <g transform="matrix(-0.0288843,0.999583,-0.999583,-0.0288843,929.42,-813.11)">
                    <ellipse cx="850.532" cy="159.182" rx="20.89" ry="37.671" style="fill:white;"/>
                </g>
                <g transform="matrix(0.898333,0.439314,-0.439314,0.898333,21.9965,-373.038)">
                    <ellipse cx="863.546" cy="62.264" rx="19.521" ry="27.055" style="fill:white;"/>
                </g>
            </g>
        </g>
    </g>
</svg>
