<?xml version="1.0" encoding="UTF-8" standalone="no"?>
<!DOCTYPE svg PUBLIC "-//W3C//DTD SVG 1.1//EN" "http://www.w3.org/Graphics/SVG/1.1/DTD/svg11.dtd">
<svg width="100%" height="100%" viewBox="0 0 800 500" version="1.1" xmlns="http://www.w3.org/2000/svg" xmlns:xlink="http://www.w3.org/1999/xlink" xml:space="preserve" xmlns:serif="http://www.serif.com/" style="fill-rule:evenodd;clip-rule:evenodd;stroke-linejoin:round;stroke-miterlimit:1.41421;">
    <g>
        <g transform="matrix(1,0,0,0.86565,-12.6163,-39.6645)">
            <g transform="matrix(-0.974706,0.305761,0.203247,0.647912,1009.79,19.0018)">
                <rect x="159.346" y="117.601" width="506.231" height="144.081" style="fill:rgb(124,204,108);"/>
            </g>
            <g transform="matrix(0.978666,0.292838,-0.194657,0.650545,-187.438,26.8326)">
                <rect x="159.346" y="117.601" width="506.231" height="144.081" style="fill:rgb(124,204,108);"/>
            </g>
        </g>
        <g transform="matrix(1,0,0,0.790288,-11.2829,-173.819)">
            <g transform="matrix(-0.974706,0.305761,0.203247,0.647912,1009.79,19.0018)">
                <rect x="159.346" y="117.601" width="506.231" height="144.081" style="fill:rgb(124,204,108);"/>
            </g>
            <g transform="matrix(0.978666,0.292838,-0.194657,0.650545,-187.438,26.8326)">
                <rect x="159.346" y="117.601" width="506.231" height="144.081" style="fill:rgb(124,204,108);"/>
            </g>
        </g>
        <g transform="matrix(1,0,0,0.790288,-16.6163,-227.152)">
            <g transform="matrix(-0.974706,0.305761,0.203247,0.647912,1009.79,19.0018)">
                <rect x="159.346" y="117.601" width="506.231" height="144.081" style="fill:rgb(124,204,108);"/>
            </g>
            <g transform="matrix(0.978666,0.292838,-0.194657,0.650545,-187.438,26.8326)">
                <rect x="159.346" y="117.601" width="506.231" height="144.081" style="fill:rgb(124,204,108);"/>
            </g>
        </g>
        <g transform="matrix(1,0,0,0.790288,-9.94953,135.515)">
            <g transform="matrix(-0.974706,0.305761,0.203247,0.647912,1009.79,19.0018)">
                <rect x="159.346" y="117.601" width="506.231" height="144.081" style="fill:rgb(124,204,108);"/>
            </g>
            <g transform="matrix(0.978666,0.292838,-0.194657,0.650545,-187.438,26.8326)">
                <rect x="159.346" y="117.601" width="506.231" height="144.081" style="fill:rgb(124,204,108);"/>
            </g>
        </g>
        <g transform="matrix(1,0,0,0.790288,7.38385,287.515)">
            <g transform="matrix(-0.974706,0.305761,0.203247,0.647912,1009.79,19.0018)">
                <rect x="159.346" y="117.601" width="506.231" height="144.081" style="fill:rgb(124,204,108);"/>
            </g>
            <g transform="matrix(0.978666,0.292838,-0.194657,0.650545,-187.438,26.8326)">
                <rect x="159.346" y="117.601" width="506.231" height="144.081" style="fill:rgb(124,204,108);"/>
            </g>
        </g>
        <g transform="matrix(1,0,0,0.865666,-12.6163,-127.333)">
            <g transform="matrix(-0.974706,0.305761,0.203247,0.647912,1009.79,19.0018)">
                <rect x="159.346" y="117.601" width="506.231" height="144.081" style="fill:rgb(120,170,0);"/>
            </g>
            <g transform="matrix(0.978666,0.292838,-0.194657,0.650545,-187.438,26.8326)">
                <rect x="159.346" y="117.601" width="506.231" height="144.081" style="fill:rgb(120,170,0);"/>
            </g>
        </g>
        <g transform="matrix(1,0,0,0.86565,-11.283,34.6689)">
            <g transform="matrix(-0.974706,0.305761,0.203247,0.647912,1009.79,19.0018)">
                <rect x="159.346" y="117.601" width="506.231" height="144.081" style="fill:rgb(120,170,0);"/>
            </g>
            <g transform="matrix(0.978666,0.292838,-0.194657,0.650545,-187.438,26.8326)">
                <rect x="159.346" y="117.601" width="506.231" height="144.081" style="fill:rgb(120,170,0);"/>
            </g>
        </g>
        <g transform="matrix(1,0,0,0.86565,-9.94977,193.336)">
            <g transform="matrix(-0.974706,0.305761,0.203247,0.647912,1009.79,19.0018)">
                <rect x="159.346" y="117.601" width="506.231" height="144.081" style="fill:rgb(120,170,0);"/>
            </g>
            <g transform="matrix(0.978666,0.292838,-0.194657,0.650545,-187.438,26.8326)">
                <rect x="159.346" y="117.601" width="506.231" height="144.081" style="fill:rgb(120,170,0);"/>
            </g>
        </g>
    </g>
</svg>
